<mxfile host="app.diagrams.net" modified="2023-01-19T20:44:01.983Z" agent="5.0 (Windows NT 10.0; Win64; x64) AppleWebKit/537.36 (KHTML, like Gecko) Chrome/109.0.0.0 Safari/537.36 Edg/109.0.1518.55" version="20.8.5" etag="019zETq9ZgqlxUAXobyh" type="github">
  <diagram id="sOeS8DgzQ2jSGFCMxUWe" name="PÃ¡gina-1">
    <mxGraphModel dx="1387" dy="756" grid="1" gridSize="10" guides="1" tooltips="1" connect="1" arrows="1" fold="1" page="1" pageScale="1" pageWidth="827" pageHeight="1169" math="0" shadow="0">
      <root>
        <mxCell id="0" />
        <mxCell id="1" parent="0" />
        <mxCell id="T_DszcgmYU0aFU_YQR63-1" value="1" style="ellipse;whiteSpace=wrap;html=1;" vertex="1" parent="1">
          <mxGeometry x="60" y="30" width="30" height="20" as="geometry" />
        </mxCell>
        <mxCell id="T_DszcgmYU0aFU_YQR63-2" value="" style="endArrow=classic;html=1;rounded=0;exitX=0.5;exitY=1;exitDx=0;exitDy=0;" edge="1" parent="1" source="T_DszcgmYU0aFU_YQR63-1" target="T_DszcgmYU0aFU_YQR63-3">
          <mxGeometry width="50" height="50" relative="1" as="geometry">
            <mxPoint x="100" y="420" as="sourcePoint" />
            <mxPoint x="110" y="170" as="targetPoint" />
          </mxGeometry>
        </mxCell>
        <mxCell id="T_DszcgmYU0aFU_YQR63-3" value="2" style="ellipse;whiteSpace=wrap;html=1;" vertex="1" parent="1">
          <mxGeometry x="60" y="70" width="30" height="20" as="geometry" />
        </mxCell>
        <mxCell id="T_DszcgmYU0aFU_YQR63-4" value="" style="endArrow=classic;html=1;rounded=0;exitX=0.5;exitY=1;exitDx=0;exitDy=0;" edge="1" parent="1" source="T_DszcgmYU0aFU_YQR63-3" target="T_DszcgmYU0aFU_YQR63-5">
          <mxGeometry width="50" height="50" relative="1" as="geometry">
            <mxPoint x="100" y="420" as="sourcePoint" />
            <mxPoint x="110" y="260" as="targetPoint" />
          </mxGeometry>
        </mxCell>
        <mxCell id="T_DszcgmYU0aFU_YQR63-5" value="3" style="ellipse;whiteSpace=wrap;html=1;" vertex="1" parent="1">
          <mxGeometry x="60" y="110" width="33.75" height="20" as="geometry" />
        </mxCell>
        <mxCell id="T_DszcgmYU0aFU_YQR63-6" value="" style="endArrow=classic;html=1;rounded=0;exitX=0.5;exitY=1;exitDx=0;exitDy=0;entryX=0.65;entryY=-0.025;entryDx=0;entryDy=0;entryPerimeter=0;" edge="1" parent="1" source="T_DszcgmYU0aFU_YQR63-5" target="T_DszcgmYU0aFU_YQR63-9">
          <mxGeometry width="50" height="50" relative="1" as="geometry">
            <mxPoint x="100" y="420" as="sourcePoint" />
            <mxPoint x="85.16606831532317" y="260.0902656707012" as="targetPoint" />
          </mxGeometry>
        </mxCell>
        <mxCell id="T_DszcgmYU0aFU_YQR63-9" value="4" style="ellipse;whiteSpace=wrap;html=1;" vertex="1" parent="1">
          <mxGeometry x="60" y="160" width="30" height="20" as="geometry" />
        </mxCell>
        <mxCell id="T_DszcgmYU0aFU_YQR63-10" value="" style="endArrow=classic;html=1;rounded=0;exitX=0.5;exitY=1;exitDx=0;exitDy=0;fillColor=#f8cecc;strokeColor=#b85450;" edge="1" parent="1" source="T_DszcgmYU0aFU_YQR63-9" target="T_DszcgmYU0aFU_YQR63-17">
          <mxGeometry width="50" height="50" relative="1" as="geometry">
            <mxPoint x="100" y="310" as="sourcePoint" />
            <mxPoint x="60" y="350" as="targetPoint" />
          </mxGeometry>
        </mxCell>
        <mxCell id="T_DszcgmYU0aFU_YQR63-11" value="" style="endArrow=classic;html=1;rounded=0;exitX=0.617;exitY=1.075;exitDx=0;exitDy=0;exitPerimeter=0;fillColor=#d5e8d4;strokeColor=#82b366;" edge="1" parent="1" source="T_DszcgmYU0aFU_YQR63-9" target="T_DszcgmYU0aFU_YQR63-12">
          <mxGeometry width="50" height="50" relative="1" as="geometry">
            <mxPoint x="100" y="310" as="sourcePoint" />
            <mxPoint x="110" y="270" as="targetPoint" />
          </mxGeometry>
        </mxCell>
        <mxCell id="T_DszcgmYU0aFU_YQR63-14" style="edgeStyle=orthogonalEdgeStyle;rounded=0;orthogonalLoop=1;jettySize=auto;html=1;exitX=1;exitY=0;exitDx=0;exitDy=0;entryX=1;entryY=0.5;entryDx=0;entryDy=0;" edge="1" parent="1" source="T_DszcgmYU0aFU_YQR63-12" target="T_DszcgmYU0aFU_YQR63-9">
          <mxGeometry relative="1" as="geometry" />
        </mxCell>
        <mxCell id="T_DszcgmYU0aFU_YQR63-12" value="5" style="ellipse;whiteSpace=wrap;html=1;" vertex="1" parent="1">
          <mxGeometry x="90" y="200" width="30" height="20" as="geometry" />
        </mxCell>
        <mxCell id="T_DszcgmYU0aFU_YQR63-15" value="" style="endArrow=classic;html=1;rounded=0;exitX=0.5;exitY=1;exitDx=0;exitDy=0;fillColor=#d5e8d4;strokeColor=#82b366;" edge="1" parent="1" source="T_DszcgmYU0aFU_YQR63-12" target="T_DszcgmYU0aFU_YQR63-16">
          <mxGeometry width="50" height="50" relative="1" as="geometry">
            <mxPoint x="100" y="310" as="sourcePoint" />
            <mxPoint x="115" y="320" as="targetPoint" />
          </mxGeometry>
        </mxCell>
        <mxCell id="T_DszcgmYU0aFU_YQR63-19" style="edgeStyle=orthogonalEdgeStyle;rounded=0;orthogonalLoop=1;jettySize=auto;html=1;exitX=1;exitY=0.5;exitDx=0;exitDy=0;entryX=1;entryY=0.5;entryDx=0;entryDy=0;" edge="1" parent="1" source="T_DszcgmYU0aFU_YQR63-16" target="T_DszcgmYU0aFU_YQR63-12">
          <mxGeometry relative="1" as="geometry" />
        </mxCell>
        <mxCell id="T_DszcgmYU0aFU_YQR63-16" value="6" style="ellipse;whiteSpace=wrap;html=1;" vertex="1" parent="1">
          <mxGeometry x="93.75" y="240" width="26.25" height="20" as="geometry" />
        </mxCell>
        <mxCell id="T_DszcgmYU0aFU_YQR63-17" value="7" style="ellipse;whiteSpace=wrap;html=1;" vertex="1" parent="1">
          <mxGeometry x="73.75" y="280" width="20" height="20" as="geometry" />
        </mxCell>
        <mxCell id="T_DszcgmYU0aFU_YQR63-18" value="" style="endArrow=classic;html=1;rounded=0;exitX=0.5;exitY=1;exitDx=0;exitDy=0;entryX=0.5;entryY=0;entryDx=0;entryDy=0;" edge="1" parent="1" source="T_DszcgmYU0aFU_YQR63-16" target="T_DszcgmYU0aFU_YQR63-17">
          <mxGeometry width="50" height="50" relative="1" as="geometry">
            <mxPoint x="100" y="310" as="sourcePoint" />
            <mxPoint x="150" y="260" as="targetPoint" />
          </mxGeometry>
        </mxCell>
        <mxCell id="T_DszcgmYU0aFU_YQR63-20" value="" style="endArrow=classic;html=1;rounded=0;exitX=0;exitY=1;exitDx=0;exitDy=0;entryX=0.5;entryY=0;entryDx=0;entryDy=0;fillColor=#f8cecc;strokeColor=#b85450;" edge="1" parent="1" source="T_DszcgmYU0aFU_YQR63-12" target="T_DszcgmYU0aFU_YQR63-17">
          <mxGeometry width="50" height="50" relative="1" as="geometry">
            <mxPoint x="100" y="310" as="sourcePoint" />
            <mxPoint x="150" y="260" as="targetPoint" />
          </mxGeometry>
        </mxCell>
        <mxCell id="T_DszcgmYU0aFU_YQR63-21" value="8" style="ellipse;whiteSpace=wrap;html=1;" vertex="1" parent="1">
          <mxGeometry x="300" y="40" width="50" height="30" as="geometry" />
        </mxCell>
        <mxCell id="T_DszcgmYU0aFU_YQR63-23" value="" style="endArrow=classic;html=1;rounded=0;exitX=0.5;exitY=1;exitDx=0;exitDy=0;" edge="1" parent="1" source="T_DszcgmYU0aFU_YQR63-21" target="T_DszcgmYU0aFU_YQR63-24">
          <mxGeometry width="50" height="50" relative="1" as="geometry">
            <mxPoint x="390" y="300" as="sourcePoint" />
            <mxPoint x="325" y="120" as="targetPoint" />
          </mxGeometry>
        </mxCell>
        <mxCell id="T_DszcgmYU0aFU_YQR63-24" value="9" style="ellipse;whiteSpace=wrap;html=1;" vertex="1" parent="1">
          <mxGeometry x="307.5" y="100" width="35" height="20" as="geometry" />
        </mxCell>
        <mxCell id="T_DszcgmYU0aFU_YQR63-25" value="" style="endArrow=classic;html=1;rounded=0;exitX=0.5;exitY=1;exitDx=0;exitDy=0;fillColor=#d5e8d4;strokeColor=#82b366;" edge="1" parent="1" source="T_DszcgmYU0aFU_YQR63-24" target="T_DszcgmYU0aFU_YQR63-26">
          <mxGeometry width="50" height="50" relative="1" as="geometry">
            <mxPoint x="390" y="300" as="sourcePoint" />
            <mxPoint x="290" y="140" as="targetPoint" />
          </mxGeometry>
        </mxCell>
        <mxCell id="T_DszcgmYU0aFU_YQR63-26" value="10" style="ellipse;whiteSpace=wrap;html=1;" vertex="1" parent="1">
          <mxGeometry x="257.5" y="160" width="50" height="40" as="geometry" />
        </mxCell>
        <mxCell id="T_DszcgmYU0aFU_YQR63-28" value="" style="endArrow=classic;html=1;rounded=0;exitX=0.5;exitY=1;exitDx=0;exitDy=0;fillColor=#f8cecc;strokeColor=#b85450;" edge="1" parent="1" source="T_DszcgmYU0aFU_YQR63-24" target="T_DszcgmYU0aFU_YQR63-29">
          <mxGeometry width="50" height="50" relative="1" as="geometry">
            <mxPoint x="320" y="120" as="sourcePoint" />
            <mxPoint x="350" y="150" as="targetPoint" />
          </mxGeometry>
        </mxCell>
        <mxCell id="T_DszcgmYU0aFU_YQR63-29" value="12" style="ellipse;whiteSpace=wrap;html=1;" vertex="1" parent="1">
          <mxGeometry x="394" y="100" width="40" height="40" as="geometry" />
        </mxCell>
        <mxCell id="T_DszcgmYU0aFU_YQR63-31" value="11" style="ellipse;whiteSpace=wrap;html=1;" vertex="1" parent="1">
          <mxGeometry x="265" y="840" width="40" height="40" as="geometry" />
        </mxCell>
        <mxCell id="T_DszcgmYU0aFU_YQR63-32" value="Iniciar_Click" style="text;html=1;strokeColor=none;fillColor=none;align=center;verticalAlign=middle;whiteSpace=wrap;rounded=0;" vertex="1" parent="1">
          <mxGeometry x="45" width="60" height="30" as="geometry" />
        </mxCell>
        <mxCell id="T_DszcgmYU0aFU_YQR63-33" value="timer1_Tick" style="text;html=1;strokeColor=none;fillColor=none;align=center;verticalAlign=middle;whiteSpace=wrap;rounded=0;" vertex="1" parent="1">
          <mxGeometry x="290" width="60" height="30" as="geometry" />
        </mxCell>
        <mxCell id="T_DszcgmYU0aFU_YQR63-34" value="Form1_KeyDown" style="text;html=1;strokeColor=none;fillColor=none;align=center;verticalAlign=middle;whiteSpace=wrap;rounded=0;" vertex="1" parent="1">
          <mxGeometry x="640" y="20" width="60" height="30" as="geometry" />
        </mxCell>
        <mxCell id="T_DszcgmYU0aFU_YQR63-35" value="" style="endArrow=classic;html=1;rounded=0;exitX=0.5;exitY=1;exitDx=0;exitDy=0;" edge="1" parent="1" source="T_DszcgmYU0aFU_YQR63-26" target="T_DszcgmYU0aFU_YQR63-36">
          <mxGeometry width="50" height="50" relative="1" as="geometry">
            <mxPoint x="390" y="300" as="sourcePoint" />
            <mxPoint x="283" y="240" as="targetPoint" />
          </mxGeometry>
        </mxCell>
        <mxCell id="T_DszcgmYU0aFU_YQR63-36" value="13" style="ellipse;whiteSpace=wrap;html=1;aspect=fixed;" vertex="1" parent="1">
          <mxGeometry x="267.5" y="220" width="30" height="30" as="geometry" />
        </mxCell>
        <mxCell id="T_DszcgmYU0aFU_YQR63-37" value="" style="endArrow=classic;html=1;rounded=0;exitX=0.5;exitY=1;exitDx=0;exitDy=0;entryX=0.5;entryY=0;entryDx=0;entryDy=0;fillColor=#f8cecc;strokeColor=#b85450;" edge="1" parent="1" source="T_DszcgmYU0aFU_YQR63-36" target="T_DszcgmYU0aFU_YQR63-40">
          <mxGeometry width="50" height="50" relative="1" as="geometry">
            <mxPoint x="390" y="300" as="sourcePoint" />
            <mxPoint x="283" y="300" as="targetPoint" />
          </mxGeometry>
        </mxCell>
        <mxCell id="T_DszcgmYU0aFU_YQR63-38" value="" style="endArrow=classic;html=1;rounded=0;exitX=0.5;exitY=1;exitDx=0;exitDy=0;fillColor=#d5e8d4;strokeColor=#82b366;" edge="1" parent="1" source="T_DszcgmYU0aFU_YQR63-36" target="T_DszcgmYU0aFU_YQR63-39">
          <mxGeometry width="50" height="50" relative="1" as="geometry">
            <mxPoint x="390" y="300" as="sourcePoint" />
            <mxPoint x="320" y="270" as="targetPoint" />
          </mxGeometry>
        </mxCell>
        <mxCell id="T_DszcgmYU0aFU_YQR63-39" value="14" style="ellipse;whiteSpace=wrap;html=1;aspect=fixed;" vertex="1" parent="1">
          <mxGeometry x="305" y="250" width="30" height="30" as="geometry" />
        </mxCell>
        <mxCell id="T_DszcgmYU0aFU_YQR63-40" value="15&lt;br&gt;" style="ellipse;whiteSpace=wrap;html=1;" vertex="1" parent="1">
          <mxGeometry x="280" y="310" width="40" height="30" as="geometry" />
        </mxCell>
        <mxCell id="T_DszcgmYU0aFU_YQR63-41" value="" style="endArrow=classic;html=1;rounded=0;exitX=0.5;exitY=1;exitDx=0;exitDy=0;entryX=0.5;entryY=0;entryDx=0;entryDy=0;" edge="1" parent="1" source="T_DszcgmYU0aFU_YQR63-39" target="T_DszcgmYU0aFU_YQR63-40">
          <mxGeometry width="50" height="50" relative="1" as="geometry">
            <mxPoint x="390" y="290" as="sourcePoint" />
            <mxPoint x="440" y="240" as="targetPoint" />
          </mxGeometry>
        </mxCell>
        <mxCell id="T_DszcgmYU0aFU_YQR63-42" value="" style="endArrow=classic;html=1;rounded=0;exitX=0.5;exitY=1;exitDx=0;exitDy=0;" edge="1" parent="1" source="T_DszcgmYU0aFU_YQR63-40" target="T_DszcgmYU0aFU_YQR63-43">
          <mxGeometry width="50" height="50" relative="1" as="geometry">
            <mxPoint x="390" y="290" as="sourcePoint" />
            <mxPoint x="300" y="360" as="targetPoint" />
          </mxGeometry>
        </mxCell>
        <mxCell id="T_DszcgmYU0aFU_YQR63-43" value="16" style="ellipse;whiteSpace=wrap;html=1;aspect=fixed;" vertex="1" parent="1">
          <mxGeometry x="280" y="360" width="30" height="30" as="geometry" />
        </mxCell>
        <mxCell id="T_DszcgmYU0aFU_YQR63-46" style="edgeStyle=orthogonalEdgeStyle;rounded=0;orthogonalLoop=1;jettySize=auto;html=1;exitX=0.5;exitY=0;exitDx=0;exitDy=0;entryX=1;entryY=0;entryDx=0;entryDy=0;" edge="1" parent="1" source="T_DszcgmYU0aFU_YQR63-44" target="T_DszcgmYU0aFU_YQR63-43">
          <mxGeometry relative="1" as="geometry" />
        </mxCell>
        <mxCell id="T_DszcgmYU0aFU_YQR63-44" value="17&lt;br&gt;" style="ellipse;whiteSpace=wrap;html=1;aspect=fixed;" vertex="1" parent="1">
          <mxGeometry x="335" y="360" width="35" height="35" as="geometry" />
        </mxCell>
        <mxCell id="T_DszcgmYU0aFU_YQR63-45" value="" style="endArrow=classic;html=1;rounded=0;exitX=1;exitY=0.5;exitDx=0;exitDy=0;entryX=0;entryY=0.5;entryDx=0;entryDy=0;fillColor=#d5e8d4;strokeColor=#82b366;" edge="1" parent="1" source="T_DszcgmYU0aFU_YQR63-43" target="T_DszcgmYU0aFU_YQR63-44">
          <mxGeometry width="50" height="50" relative="1" as="geometry">
            <mxPoint x="390" y="280" as="sourcePoint" />
            <mxPoint x="440" y="230" as="targetPoint" />
          </mxGeometry>
        </mxCell>
        <mxCell id="T_DszcgmYU0aFU_YQR63-47" value="18&lt;br&gt;" style="ellipse;whiteSpace=wrap;html=1;aspect=fixed;" vertex="1" parent="1">
          <mxGeometry x="275" y="410" width="40" height="40" as="geometry" />
        </mxCell>
        <mxCell id="T_DszcgmYU0aFU_YQR63-48" value="" style="endArrow=classic;html=1;rounded=0;exitX=0.5;exitY=1;exitDx=0;exitDy=0;entryX=0.5;entryY=0;entryDx=0;entryDy=0;fillColor=#f8cecc;strokeColor=#b85450;" edge="1" parent="1" source="T_DszcgmYU0aFU_YQR63-43" target="T_DszcgmYU0aFU_YQR63-47">
          <mxGeometry width="50" height="50" relative="1" as="geometry">
            <mxPoint x="390" y="280" as="sourcePoint" />
            <mxPoint x="440" y="230" as="targetPoint" />
          </mxGeometry>
        </mxCell>
        <mxCell id="T_DszcgmYU0aFU_YQR63-49" value="" style="endArrow=classic;html=1;rounded=0;exitX=0.5;exitY=1;exitDx=0;exitDy=0;fillColor=#d5e8d4;strokeColor=#82b366;" edge="1" parent="1" source="T_DszcgmYU0aFU_YQR63-47" target="T_DszcgmYU0aFU_YQR63-50">
          <mxGeometry width="50" height="50" relative="1" as="geometry">
            <mxPoint x="390" y="390" as="sourcePoint" />
            <mxPoint x="240" y="470" as="targetPoint" />
          </mxGeometry>
        </mxCell>
        <mxCell id="T_DszcgmYU0aFU_YQR63-50" value="19" style="ellipse;whiteSpace=wrap;html=1;aspect=fixed;" vertex="1" parent="1">
          <mxGeometry x="200" y="450" width="40" height="40" as="geometry" />
        </mxCell>
        <mxCell id="T_DszcgmYU0aFU_YQR63-51" value="" style="endArrow=classic;html=1;rounded=0;exitX=0.5;exitY=1;exitDx=0;exitDy=0;fillColor=#d5e8d4;strokeColor=#82b366;" edge="1" parent="1" source="T_DszcgmYU0aFU_YQR63-47" target="T_DszcgmYU0aFU_YQR63-52">
          <mxGeometry width="50" height="50" relative="1" as="geometry">
            <mxPoint x="390" y="390" as="sourcePoint" />
            <mxPoint x="290" y="470" as="targetPoint" />
          </mxGeometry>
        </mxCell>
        <mxCell id="T_DszcgmYU0aFU_YQR63-52" value="20" style="ellipse;whiteSpace=wrap;html=1;aspect=fixed;" vertex="1" parent="1">
          <mxGeometry x="260" y="462.5" width="27.5" height="27.5" as="geometry" />
        </mxCell>
        <mxCell id="T_DszcgmYU0aFU_YQR63-53" value="" style="endArrow=classic;html=1;rounded=0;fillColor=#d5e8d4;strokeColor=#82b366;" edge="1" parent="1" target="T_DszcgmYU0aFU_YQR63-54">
          <mxGeometry width="50" height="50" relative="1" as="geometry">
            <mxPoint x="300" y="450" as="sourcePoint" />
            <mxPoint x="340" y="470" as="targetPoint" />
          </mxGeometry>
        </mxCell>
        <mxCell id="T_DszcgmYU0aFU_YQR63-54" value="21" style="ellipse;whiteSpace=wrap;html=1;aspect=fixed;" vertex="1" parent="1">
          <mxGeometry x="305" y="470" width="30" height="30" as="geometry" />
        </mxCell>
        <mxCell id="T_DszcgmYU0aFU_YQR63-55" value="" style="endArrow=classic;html=1;rounded=0;exitX=0.5;exitY=1;exitDx=0;exitDy=0;fillColor=#d5e8d4;strokeColor=#82b366;" edge="1" parent="1" source="T_DszcgmYU0aFU_YQR63-47" target="T_DszcgmYU0aFU_YQR63-56">
          <mxGeometry width="50" height="50" relative="1" as="geometry">
            <mxPoint x="390" y="390" as="sourcePoint" />
            <mxPoint x="390" y="460" as="targetPoint" />
          </mxGeometry>
        </mxCell>
        <mxCell id="T_DszcgmYU0aFU_YQR63-56" value="22" style="ellipse;whiteSpace=wrap;html=1;aspect=fixed;" vertex="1" parent="1">
          <mxGeometry x="354" y="455" width="40" height="40" as="geometry" />
        </mxCell>
        <mxCell id="T_DszcgmYU0aFU_YQR63-57" value="" style="endArrow=classic;html=1;rounded=0;exitX=0.5;exitY=1;exitDx=0;exitDy=0;fillColor=#f8cecc;strokeColor=#b85450;" edge="1" parent="1" source="T_DszcgmYU0aFU_YQR63-47" target="T_DszcgmYU0aFU_YQR63-58">
          <mxGeometry width="50" height="50" relative="1" as="geometry">
            <mxPoint x="390" y="390" as="sourcePoint" />
            <mxPoint x="295" y="540" as="targetPoint" />
          </mxGeometry>
        </mxCell>
        <mxCell id="T_DszcgmYU0aFU_YQR63-58" value="23" style="ellipse;whiteSpace=wrap;html=1;aspect=fixed;" vertex="1" parent="1">
          <mxGeometry x="277.5" y="520" width="30" height="30" as="geometry" />
        </mxCell>
        <mxCell id="T_DszcgmYU0aFU_YQR63-59" value="" style="endArrow=classic;html=1;rounded=0;exitX=0.5;exitY=1;exitDx=0;exitDy=0;entryX=0.5;entryY=0;entryDx=0;entryDy=0;" edge="1" parent="1" source="T_DszcgmYU0aFU_YQR63-50" target="T_DszcgmYU0aFU_YQR63-58">
          <mxGeometry width="50" height="50" relative="1" as="geometry">
            <mxPoint x="390" y="390" as="sourcePoint" />
            <mxPoint x="440" y="340" as="targetPoint" />
          </mxGeometry>
        </mxCell>
        <mxCell id="T_DszcgmYU0aFU_YQR63-60" value="" style="endArrow=classic;html=1;rounded=0;exitX=0.5;exitY=1;exitDx=0;exitDy=0;entryX=0.5;entryY=0;entryDx=0;entryDy=0;" edge="1" parent="1" source="T_DszcgmYU0aFU_YQR63-52" target="T_DszcgmYU0aFU_YQR63-58">
          <mxGeometry width="50" height="50" relative="1" as="geometry">
            <mxPoint x="390" y="390" as="sourcePoint" />
            <mxPoint x="440" y="340" as="targetPoint" />
          </mxGeometry>
        </mxCell>
        <mxCell id="T_DszcgmYU0aFU_YQR63-61" value="" style="endArrow=classic;html=1;rounded=0;exitX=0.5;exitY=1;exitDx=0;exitDy=0;entryX=0.5;entryY=0;entryDx=0;entryDy=0;" edge="1" parent="1" source="T_DszcgmYU0aFU_YQR63-54" target="T_DszcgmYU0aFU_YQR63-58">
          <mxGeometry width="50" height="50" relative="1" as="geometry">
            <mxPoint x="390" y="390" as="sourcePoint" />
            <mxPoint x="440" y="340" as="targetPoint" />
          </mxGeometry>
        </mxCell>
        <mxCell id="T_DszcgmYU0aFU_YQR63-62" value="" style="endArrow=classic;html=1;rounded=0;exitX=0.5;exitY=1;exitDx=0;exitDy=0;entryX=0.5;entryY=0;entryDx=0;entryDy=0;" edge="1" parent="1" source="T_DszcgmYU0aFU_YQR63-56" target="T_DszcgmYU0aFU_YQR63-58">
          <mxGeometry width="50" height="50" relative="1" as="geometry">
            <mxPoint x="390" y="390" as="sourcePoint" />
            <mxPoint x="440" y="340" as="targetPoint" />
          </mxGeometry>
        </mxCell>
        <mxCell id="T_DszcgmYU0aFU_YQR63-63" value="" style="endArrow=classic;html=1;rounded=0;exitX=0.5;exitY=1;exitDx=0;exitDy=0;" edge="1" parent="1" source="T_DszcgmYU0aFU_YQR63-58" target="T_DszcgmYU0aFU_YQR63-64">
          <mxGeometry width="50" height="50" relative="1" as="geometry">
            <mxPoint x="390" y="390" as="sourcePoint" />
            <mxPoint x="293" y="570" as="targetPoint" />
          </mxGeometry>
        </mxCell>
        <mxCell id="T_DszcgmYU0aFU_YQR63-64" value="24" style="ellipse;whiteSpace=wrap;html=1;aspect=fixed;" vertex="1" parent="1">
          <mxGeometry x="275" y="560" width="30" height="30" as="geometry" />
        </mxCell>
        <mxCell id="T_DszcgmYU0aFU_YQR63-65" value="" style="endArrow=classic;html=1;rounded=0;exitX=0.5;exitY=1;exitDx=0;exitDy=0;fillColor=#d5e8d4;strokeColor=#82b366;" edge="1" parent="1" source="T_DszcgmYU0aFU_YQR63-64" target="T_DszcgmYU0aFU_YQR63-67">
          <mxGeometry width="50" height="50" relative="1" as="geometry">
            <mxPoint x="390" y="390" as="sourcePoint" />
            <mxPoint x="240" y="600" as="targetPoint" />
          </mxGeometry>
        </mxCell>
        <mxCell id="T_DszcgmYU0aFU_YQR63-66" value="" style="endArrow=classic;html=1;rounded=0;exitX=0.5;exitY=1;exitDx=0;exitDy=0;entryX=0.5;entryY=0;entryDx=0;entryDy=0;fillColor=#f8cecc;strokeColor=#b85450;" edge="1" parent="1" source="T_DszcgmYU0aFU_YQR63-64" target="T_DszcgmYU0aFU_YQR63-71">
          <mxGeometry width="50" height="50" relative="1" as="geometry">
            <mxPoint x="390" y="390" as="sourcePoint" />
            <mxPoint x="310" y="680" as="targetPoint" />
          </mxGeometry>
        </mxCell>
        <mxCell id="T_DszcgmYU0aFU_YQR63-67" value="25" style="ellipse;whiteSpace=wrap;html=1;aspect=fixed;" vertex="1" parent="1">
          <mxGeometry x="200" y="585" width="40" height="40" as="geometry" />
        </mxCell>
        <mxCell id="T_DszcgmYU0aFU_YQR63-70" style="edgeStyle=orthogonalEdgeStyle;rounded=0;orthogonalLoop=1;jettySize=auto;html=1;exitX=1;exitY=0.5;exitDx=0;exitDy=0;entryX=1;entryY=0.5;entryDx=0;entryDy=0;" edge="1" parent="1" source="T_DszcgmYU0aFU_YQR63-68" target="T_DszcgmYU0aFU_YQR63-67">
          <mxGeometry relative="1" as="geometry">
            <Array as="points">
              <mxPoint x="268" y="650" />
              <mxPoint x="280" y="650" />
              <mxPoint x="280" y="605" />
            </Array>
          </mxGeometry>
        </mxCell>
        <mxCell id="T_DszcgmYU0aFU_YQR63-68" value="26" style="ellipse;whiteSpace=wrap;html=1;aspect=fixed;" vertex="1" parent="1">
          <mxGeometry x="237.5" y="640" width="30" height="30" as="geometry" />
        </mxCell>
        <mxCell id="T_DszcgmYU0aFU_YQR63-69" value="" style="endArrow=classic;html=1;rounded=0;exitX=0.5;exitY=1;exitDx=0;exitDy=0;entryX=0;entryY=0;entryDx=0;entryDy=0;fillColor=#d5e8d4;strokeColor=#82b366;" edge="1" parent="1" source="T_DszcgmYU0aFU_YQR63-67" target="T_DszcgmYU0aFU_YQR63-68">
          <mxGeometry width="50" height="50" relative="1" as="geometry">
            <mxPoint x="390" y="390" as="sourcePoint" />
            <mxPoint x="440" y="340" as="targetPoint" />
          </mxGeometry>
        </mxCell>
        <mxCell id="T_DszcgmYU0aFU_YQR63-71" value="27&lt;br&gt;" style="ellipse;whiteSpace=wrap;html=1;aspect=fixed;" vertex="1" parent="1">
          <mxGeometry x="270" y="700" width="30" height="30" as="geometry" />
        </mxCell>
        <mxCell id="T_DszcgmYU0aFU_YQR63-73" value="" style="endArrow=classic;html=1;rounded=0;exitX=0.5;exitY=1;exitDx=0;exitDy=0;entryX=0;entryY=0;entryDx=0;entryDy=0;fillColor=#f8cecc;strokeColor=#b85450;" edge="1" parent="1" source="T_DszcgmYU0aFU_YQR63-67" target="T_DszcgmYU0aFU_YQR63-71">
          <mxGeometry width="50" height="50" relative="1" as="geometry">
            <mxPoint x="390" y="740" as="sourcePoint" />
            <mxPoint x="270" y="730" as="targetPoint" />
            <Array as="points">
              <mxPoint x="240" y="680" />
            </Array>
          </mxGeometry>
        </mxCell>
        <mxCell id="T_DszcgmYU0aFU_YQR63-74" value="28" style="ellipse;whiteSpace=wrap;html=1;" vertex="1" parent="1">
          <mxGeometry x="265" y="750" width="40" height="30" as="geometry" />
        </mxCell>
        <mxCell id="T_DszcgmYU0aFU_YQR63-75" value="" style="endArrow=classic;html=1;rounded=0;exitX=0.5;exitY=1;exitDx=0;exitDy=0;entryX=0.5;entryY=0;entryDx=0;entryDy=0;" edge="1" parent="1" source="T_DszcgmYU0aFU_YQR63-71" target="T_DszcgmYU0aFU_YQR63-74">
          <mxGeometry width="50" height="50" relative="1" as="geometry">
            <mxPoint x="20" y="620" as="sourcePoint" />
            <mxPoint x="70" y="570" as="targetPoint" />
          </mxGeometry>
        </mxCell>
        <mxCell id="T_DszcgmYU0aFU_YQR63-76" value="" style="endArrow=classic;html=1;rounded=0;exitX=0.5;exitY=1;exitDx=0;exitDy=0;fillColor=#d5e8d4;strokeColor=#82b366;" edge="1" parent="1" source="T_DszcgmYU0aFU_YQR63-74" target="T_DszcgmYU0aFU_YQR63-77">
          <mxGeometry width="50" height="50" relative="1" as="geometry">
            <mxPoint x="20" y="620" as="sourcePoint" />
            <mxPoint x="260" y="800" as="targetPoint" />
          </mxGeometry>
        </mxCell>
        <mxCell id="T_DszcgmYU0aFU_YQR63-77" value="29" style="ellipse;whiteSpace=wrap;html=1;" vertex="1" parent="1">
          <mxGeometry x="230" y="790" width="40" height="30" as="geometry" />
        </mxCell>
        <mxCell id="T_DszcgmYU0aFU_YQR63-78" value="" style="endArrow=classic;html=1;rounded=0;exitX=0.5;exitY=1;exitDx=0;exitDy=0;entryX=0.5;entryY=0;entryDx=0;entryDy=0;fillColor=#f8cecc;strokeColor=#b85450;" edge="1" parent="1" source="T_DszcgmYU0aFU_YQR63-74" target="T_DszcgmYU0aFU_YQR63-31">
          <mxGeometry width="50" height="50" relative="1" as="geometry">
            <mxPoint x="20" y="620" as="sourcePoint" />
            <mxPoint x="285" y="810" as="targetPoint" />
          </mxGeometry>
        </mxCell>
        <mxCell id="T_DszcgmYU0aFU_YQR63-79" value="" style="endArrow=classic;html=1;rounded=0;exitX=0.5;exitY=1;exitDx=0;exitDy=0;entryX=0.363;entryY=0.075;entryDx=0;entryDy=0;entryPerimeter=0;" edge="1" parent="1" source="T_DszcgmYU0aFU_YQR63-77" target="T_DszcgmYU0aFU_YQR63-31">
          <mxGeometry width="50" height="50" relative="1" as="geometry">
            <mxPoint x="20" y="1090" as="sourcePoint" />
            <mxPoint x="70" y="1040" as="targetPoint" />
          </mxGeometry>
        </mxCell>
        <mxCell id="T_DszcgmYU0aFU_YQR63-80" value="" style="endArrow=classic;html=1;rounded=0;exitX=0.5;exitY=1;exitDx=0;exitDy=0;" edge="1" parent="1" source="T_DszcgmYU0aFU_YQR63-31" target="T_DszcgmYU0aFU_YQR63-81">
          <mxGeometry width="50" height="50" relative="1" as="geometry">
            <mxPoint x="20" y="620" as="sourcePoint" />
            <mxPoint x="285" y="920" as="targetPoint" />
          </mxGeometry>
        </mxCell>
        <mxCell id="T_DszcgmYU0aFU_YQR63-81" value="30" style="ellipse;whiteSpace=wrap;html=1;aspect=fixed;" vertex="1" parent="1">
          <mxGeometry x="270" y="900" width="30" height="30" as="geometry" />
        </mxCell>
        <mxCell id="T_DszcgmYU0aFU_YQR63-82" value="" style="endArrow=classic;html=1;rounded=0;exitX=0.5;exitY=1;exitDx=0;exitDy=0;entryX=0.5;entryY=0;entryDx=0;entryDy=0;fillColor=#f8cecc;strokeColor=#b85450;" edge="1" parent="1" source="T_DszcgmYU0aFU_YQR63-81" target="T_DszcgmYU0aFU_YQR63-96">
          <mxGeometry width="50" height="50" relative="1" as="geometry">
            <mxPoint x="20" y="1090" as="sourcePoint" />
            <mxPoint x="280" y="1040" as="targetPoint" />
          </mxGeometry>
        </mxCell>
        <mxCell id="T_DszcgmYU0aFU_YQR63-83" value="" style="endArrow=classic;html=1;rounded=0;exitX=0.5;exitY=1;exitDx=0;exitDy=0;fillColor=#d5e8d4;strokeColor=#82b366;" edge="1" parent="1" source="T_DszcgmYU0aFU_YQR63-81" target="T_DszcgmYU0aFU_YQR63-84">
          <mxGeometry width="50" height="50" relative="1" as="geometry">
            <mxPoint x="20" y="1090" as="sourcePoint" />
            <mxPoint x="330" y="970" as="targetPoint" />
          </mxGeometry>
        </mxCell>
        <mxCell id="T_DszcgmYU0aFU_YQR63-85" style="edgeStyle=orthogonalEdgeStyle;rounded=0;orthogonalLoop=1;jettySize=auto;html=1;exitX=0.5;exitY=0;exitDx=0;exitDy=0;entryX=1;entryY=0.5;entryDx=0;entryDy=0;fillColor=#f8cecc;strokeColor=#b85450;" edge="1" parent="1" source="T_DszcgmYU0aFU_YQR63-84" target="T_DszcgmYU0aFU_YQR63-81">
          <mxGeometry relative="1" as="geometry" />
        </mxCell>
        <mxCell id="T_DszcgmYU0aFU_YQR63-84" value="31" style="ellipse;whiteSpace=wrap;html=1;aspect=fixed;" vertex="1" parent="1">
          <mxGeometry x="307.5" y="950" width="40" height="40" as="geometry" />
        </mxCell>
        <mxCell id="T_DszcgmYU0aFU_YQR63-87" value="" style="endArrow=classic;html=1;rounded=0;fillColor=#d5e8d4;strokeColor=#82b366;" edge="1" parent="1" target="T_DszcgmYU0aFU_YQR63-88">
          <mxGeometry width="50" height="50" relative="1" as="geometry">
            <mxPoint x="330" y="990" as="sourcePoint" />
            <mxPoint x="370" y="1010" as="targetPoint" />
          </mxGeometry>
        </mxCell>
        <mxCell id="T_DszcgmYU0aFU_YQR63-88" value="32" style="ellipse;whiteSpace=wrap;html=1;aspect=fixed;" vertex="1" parent="1">
          <mxGeometry x="400" y="1000" width="40" height="40" as="geometry" />
        </mxCell>
        <mxCell id="T_DszcgmYU0aFU_YQR63-89" value="" style="endArrow=classic;html=1;rounded=0;exitX=0.5;exitY=1;exitDx=0;exitDy=0;fillColor=#d5e8d4;strokeColor=#82b366;" edge="1" parent="1" source="T_DszcgmYU0aFU_YQR63-88" target="T_DszcgmYU0aFU_YQR63-90">
          <mxGeometry width="50" height="50" relative="1" as="geometry">
            <mxPoint x="20" y="1090" as="sourcePoint" />
            <mxPoint x="490" y="980" as="targetPoint" />
          </mxGeometry>
        </mxCell>
        <mxCell id="T_DszcgmYU0aFU_YQR63-95" style="edgeStyle=orthogonalEdgeStyle;rounded=0;orthogonalLoop=1;jettySize=auto;html=1;exitX=0.5;exitY=1;exitDx=0;exitDy=0;entryX=1;entryY=0.5;entryDx=0;entryDy=0;" edge="1" parent="1" source="T_DszcgmYU0aFU_YQR63-90" target="T_DszcgmYU0aFU_YQR63-84">
          <mxGeometry relative="1" as="geometry">
            <Array as="points">
              <mxPoint x="394" y="1110" />
              <mxPoint x="500" y="1110" />
              <mxPoint x="500" y="960" />
              <mxPoint x="348" y="960" />
            </Array>
          </mxGeometry>
        </mxCell>
        <mxCell id="T_DszcgmYU0aFU_YQR63-90" value="33" style="ellipse;whiteSpace=wrap;html=1;aspect=fixed;" vertex="1" parent="1">
          <mxGeometry x="374" y="1050" width="40" height="40" as="geometry" />
        </mxCell>
        <mxCell id="T_DszcgmYU0aFU_YQR63-91" value="" style="endArrow=classic;html=1;rounded=0;exitX=0.5;exitY=1;exitDx=0;exitDy=0;fillColor=#f8cecc;strokeColor=#b85450;" edge="1" parent="1" source="T_DszcgmYU0aFU_YQR63-88" target="T_DszcgmYU0aFU_YQR63-92">
          <mxGeometry width="50" height="50" relative="1" as="geometry">
            <mxPoint x="20" y="1090" as="sourcePoint" />
            <mxPoint x="480" y="1030" as="targetPoint" />
          </mxGeometry>
        </mxCell>
        <mxCell id="T_DszcgmYU0aFU_YQR63-94" style="edgeStyle=orthogonalEdgeStyle;rounded=0;orthogonalLoop=1;jettySize=auto;html=1;exitX=1;exitY=0.5;exitDx=0;exitDy=0;entryX=1;entryY=0.5;entryDx=0;entryDy=0;" edge="1" parent="1" source="T_DszcgmYU0aFU_YQR63-92" target="T_DszcgmYU0aFU_YQR63-84">
          <mxGeometry relative="1" as="geometry" />
        </mxCell>
        <mxCell id="T_DszcgmYU0aFU_YQR63-92" value="34" style="ellipse;whiteSpace=wrap;html=1;aspect=fixed;" vertex="1" parent="1">
          <mxGeometry x="434" y="1060" width="30" height="30" as="geometry" />
        </mxCell>
        <mxCell id="T_DszcgmYU0aFU_YQR63-96" value="35" style="ellipse;whiteSpace=wrap;html=1;aspect=fixed;" vertex="1" parent="1">
          <mxGeometry x="300" y="1090" width="40" height="40" as="geometry" />
        </mxCell>
        <mxCell id="T_DszcgmYU0aFU_YQR63-97" value="" style="endArrow=classic;html=1;rounded=0;exitX=0.5;exitY=1;exitDx=0;exitDy=0;fillColor=#f8cecc;strokeColor=#b85450;" edge="1" parent="1" source="T_DszcgmYU0aFU_YQR63-96" target="T_DszcgmYU0aFU_YQR63-100">
          <mxGeometry width="50" height="50" relative="1" as="geometry">
            <mxPoint x="20" y="1090" as="sourcePoint" />
            <mxPoint x="320" y="1190" as="targetPoint" />
          </mxGeometry>
        </mxCell>
        <mxCell id="T_DszcgmYU0aFU_YQR63-98" value="" style="endArrow=classic;html=1;rounded=0;exitX=0.5;exitY=1;exitDx=0;exitDy=0;fillColor=#d5e8d4;strokeColor=#82b366;" edge="1" parent="1" source="T_DszcgmYU0aFU_YQR63-96" target="T_DszcgmYU0aFU_YQR63-99">
          <mxGeometry width="50" height="50" relative="1" as="geometry">
            <mxPoint x="20" y="1090" as="sourcePoint" />
            <mxPoint x="370" y="1170" as="targetPoint" />
          </mxGeometry>
        </mxCell>
        <mxCell id="T_DszcgmYU0aFU_YQR63-99" value="36" style="ellipse;whiteSpace=wrap;html=1;aspect=fixed;" vertex="1" parent="1">
          <mxGeometry x="370" y="1150" width="30" height="30" as="geometry" />
        </mxCell>
        <mxCell id="T_DszcgmYU0aFU_YQR63-100" value="37" style="ellipse;whiteSpace=wrap;html=1;aspect=fixed;" vertex="1" parent="1">
          <mxGeometry x="297.5" y="1190" width="60" height="60" as="geometry" />
        </mxCell>
        <mxCell id="T_DszcgmYU0aFU_YQR63-101" value="" style="endArrow=classic;html=1;rounded=0;exitX=0.5;exitY=1;exitDx=0;exitDy=0;entryX=0.5;entryY=0;entryDx=0;entryDy=0;" edge="1" parent="1" source="T_DszcgmYU0aFU_YQR63-99" target="T_DszcgmYU0aFU_YQR63-100">
          <mxGeometry width="50" height="50" relative="1" as="geometry">
            <mxPoint x="20" y="1090" as="sourcePoint" />
            <mxPoint x="70" y="1040" as="targetPoint" />
          </mxGeometry>
        </mxCell>
        <mxCell id="T_DszcgmYU0aFU_YQR63-102" value="38" style="ellipse;whiteSpace=wrap;html=1;" vertex="1" parent="1">
          <mxGeometry x="660" y="50" width="40" height="40" as="geometry" />
        </mxCell>
        <mxCell id="T_DszcgmYU0aFU_YQR63-103" value="" style="endArrow=classic;html=1;rounded=0;exitX=0.5;exitY=1;exitDx=0;exitDy=0;" edge="1" parent="1" source="T_DszcgmYU0aFU_YQR63-102" target="T_DszcgmYU0aFU_YQR63-104">
          <mxGeometry width="50" height="50" relative="1" as="geometry">
            <mxPoint x="650" y="270" as="sourcePoint" />
            <mxPoint x="680" y="140" as="targetPoint" />
          </mxGeometry>
        </mxCell>
        <mxCell id="T_DszcgmYU0aFU_YQR63-104" value="39" style="ellipse;whiteSpace=wrap;html=1;aspect=fixed;" vertex="1" parent="1">
          <mxGeometry x="665" y="105" width="30" height="30" as="geometry" />
        </mxCell>
        <mxCell id="T_DszcgmYU0aFU_YQR63-105" value="" style="endArrow=classic;html=1;rounded=0;exitX=0.5;exitY=1;exitDx=0;exitDy=0;fillColor=#f8cecc;strokeColor=#b85450;" edge="1" parent="1" source="T_DszcgmYU0aFU_YQR63-104" target="T_DszcgmYU0aFU_YQR63-108">
          <mxGeometry width="50" height="50" relative="1" as="geometry">
            <mxPoint x="650" y="270" as="sourcePoint" />
            <mxPoint x="680" y="180" as="targetPoint" />
          </mxGeometry>
        </mxCell>
        <mxCell id="T_DszcgmYU0aFU_YQR63-106" value="" style="endArrow=classic;html=1;rounded=0;exitX=0.5;exitY=1;exitDx=0;exitDy=0;fillColor=#d5e8d4;strokeColor=#82b366;" edge="1" parent="1" source="T_DszcgmYU0aFU_YQR63-104" target="T_DszcgmYU0aFU_YQR63-107">
          <mxGeometry width="50" height="50" relative="1" as="geometry">
            <mxPoint x="650" y="270" as="sourcePoint" />
            <mxPoint x="720" y="160" as="targetPoint" />
          </mxGeometry>
        </mxCell>
        <mxCell id="T_DszcgmYU0aFU_YQR63-107" value="40" style="ellipse;whiteSpace=wrap;html=1;aspect=fixed;" vertex="1" parent="1">
          <mxGeometry x="720" y="140" width="40" height="40" as="geometry" />
        </mxCell>
        <mxCell id="T_DszcgmYU0aFU_YQR63-108" value="41" style="ellipse;whiteSpace=wrap;html=1;aspect=fixed;" vertex="1" parent="1">
          <mxGeometry x="660" y="180" width="40" height="40" as="geometry" />
        </mxCell>
        <mxCell id="T_DszcgmYU0aFU_YQR63-109" value="" style="endArrow=classic;html=1;rounded=0;exitX=0.5;exitY=1;exitDx=0;exitDy=0;entryX=0.5;entryY=0;entryDx=0;entryDy=0;" edge="1" parent="1" source="T_DszcgmYU0aFU_YQR63-107" target="T_DszcgmYU0aFU_YQR63-108">
          <mxGeometry width="50" height="50" relative="1" as="geometry">
            <mxPoint x="650" y="270" as="sourcePoint" />
            <mxPoint x="700" y="220" as="targetPoint" />
          </mxGeometry>
        </mxCell>
        <mxCell id="T_DszcgmYU0aFU_YQR63-110" value="" style="endArrow=classic;html=1;rounded=0;exitX=0.5;exitY=1;exitDx=0;exitDy=0;" edge="1" parent="1" source="T_DszcgmYU0aFU_YQR63-108" target="T_DszcgmYU0aFU_YQR63-111">
          <mxGeometry width="50" height="50" relative="1" as="geometry">
            <mxPoint x="650" y="270" as="sourcePoint" />
            <mxPoint x="680" y="260" as="targetPoint" />
          </mxGeometry>
        </mxCell>
        <mxCell id="T_DszcgmYU0aFU_YQR63-111" value="42" style="ellipse;whiteSpace=wrap;html=1;aspect=fixed;" vertex="1" parent="1">
          <mxGeometry x="660" y="245" width="40" height="40" as="geometry" />
        </mxCell>
        <mxCell id="T_DszcgmYU0aFU_YQR63-112" value="" style="endArrow=classic;html=1;rounded=0;exitX=0.5;exitY=1;exitDx=0;exitDy=0;fillColor=#f8cecc;strokeColor=#b85450;" edge="1" parent="1" source="T_DszcgmYU0aFU_YQR63-111" target="T_DszcgmYU0aFU_YQR63-115">
          <mxGeometry width="50" height="50" relative="1" as="geometry">
            <mxPoint x="650" y="270" as="sourcePoint" />
            <mxPoint x="680" y="350" as="targetPoint" />
          </mxGeometry>
        </mxCell>
        <mxCell id="T_DszcgmYU0aFU_YQR63-113" value="" style="endArrow=classic;html=1;rounded=0;exitX=0.5;exitY=1;exitDx=0;exitDy=0;fillColor=#d5e8d4;strokeColor=#82b366;" edge="1" parent="1" source="T_DszcgmYU0aFU_YQR63-111" target="T_DszcgmYU0aFU_YQR63-114">
          <mxGeometry width="50" height="50" relative="1" as="geometry">
            <mxPoint x="650" y="270" as="sourcePoint" />
            <mxPoint x="730" y="310" as="targetPoint" />
          </mxGeometry>
        </mxCell>
        <mxCell id="T_DszcgmYU0aFU_YQR63-114" value="43" style="ellipse;whiteSpace=wrap;html=1;aspect=fixed;" vertex="1" parent="1">
          <mxGeometry x="720" y="300" width="40" height="40" as="geometry" />
        </mxCell>
        <mxCell id="T_DszcgmYU0aFU_YQR63-115" value="44" style="ellipse;whiteSpace=wrap;html=1;aspect=fixed;" vertex="1" parent="1">
          <mxGeometry x="665" y="350" width="40" height="40" as="geometry" />
        </mxCell>
        <mxCell id="T_DszcgmYU0aFU_YQR63-116" value="" style="endArrow=classic;html=1;rounded=0;exitX=0.5;exitY=1;exitDx=0;exitDy=0;entryX=0.5;entryY=0;entryDx=0;entryDy=0;" edge="1" parent="1" source="T_DszcgmYU0aFU_YQR63-114" target="T_DszcgmYU0aFU_YQR63-115">
          <mxGeometry width="50" height="50" relative="1" as="geometry">
            <mxPoint x="650" y="270" as="sourcePoint" />
            <mxPoint x="700" y="220" as="targetPoint" />
          </mxGeometry>
        </mxCell>
        <mxCell id="T_DszcgmYU0aFU_YQR63-117" value="45" style="ellipse;whiteSpace=wrap;html=1;" vertex="1" parent="1">
          <mxGeometry x="665" y="420" width="35" height="30" as="geometry" />
        </mxCell>
        <mxCell id="T_DszcgmYU0aFU_YQR63-118" value="" style="endArrow=classic;html=1;rounded=0;exitX=0.5;exitY=1;exitDx=0;exitDy=0;entryX=0.5;entryY=0;entryDx=0;entryDy=0;" edge="1" parent="1" source="T_DszcgmYU0aFU_YQR63-115" target="T_DszcgmYU0aFU_YQR63-117">
          <mxGeometry width="50" height="50" relative="1" as="geometry">
            <mxPoint x="650" y="270" as="sourcePoint" />
            <mxPoint x="700" y="220" as="targetPoint" />
          </mxGeometry>
        </mxCell>
        <mxCell id="T_DszcgmYU0aFU_YQR63-120" value="" style="endArrow=classic;html=1;rounded=0;exitX=0.5;exitY=1;exitDx=0;exitDy=0;fillColor=#d5e8d4;strokeColor=#82b366;" edge="1" parent="1" source="T_DszcgmYU0aFU_YQR63-117" target="T_DszcgmYU0aFU_YQR63-121">
          <mxGeometry width="50" height="50" relative="1" as="geometry">
            <mxPoint x="650" y="270" as="sourcePoint" />
            <mxPoint x="730" y="460" as="targetPoint" />
          </mxGeometry>
        </mxCell>
        <mxCell id="T_DszcgmYU0aFU_YQR63-121" value="46" style="ellipse;whiteSpace=wrap;html=1;" vertex="1" parent="1">
          <mxGeometry x="730" y="461.25" width="40" height="30" as="geometry" />
        </mxCell>
      </root>
    </mxGraphModel>
  </diagram>
</mxfile>
